<mxfile host="app.diagrams.net" agent="Mozilla/5.0 (Windows NT 10.0; Win64; x64) AppleWebKit/537.36 (KHTML, like Gecko) Chrome/127.0.0.0 Safari/537.36" version="24.7.4">
  <diagram name="PÃ¡gina-1" id="BoAdON2ogM47SApakbnS">
    <mxGraphModel dx="2415" dy="829" grid="1" gridSize="10" guides="1" tooltips="1" connect="1" arrows="1" fold="1" page="1" pageScale="1" pageWidth="827" pageHeight="1169" math="0" shadow="0">
      <root>
        <mxCell id="0" />
        <mxCell id="1" parent="0" />
        <mxCell id="k-rsU8A-za_xmtasJ4Mx-43" style="edgeStyle=orthogonalEdgeStyle;rounded=0;orthogonalLoop=1;jettySize=auto;html=1;entryX=0.5;entryY=0;entryDx=0;entryDy=0;" edge="1" parent="1" source="k-rsU8A-za_xmtasJ4Mx-1" target="k-rsU8A-za_xmtasJ4Mx-39">
          <mxGeometry relative="1" as="geometry" />
        </mxCell>
        <mxCell id="k-rsU8A-za_xmtasJ4Mx-59" style="edgeStyle=orthogonalEdgeStyle;rounded=0;orthogonalLoop=1;jettySize=auto;html=1;entryX=0;entryY=0.5;entryDx=0;entryDy=0;" edge="1" parent="1" source="k-rsU8A-za_xmtasJ4Mx-1" target="k-rsU8A-za_xmtasJ4Mx-40">
          <mxGeometry relative="1" as="geometry" />
        </mxCell>
        <mxCell id="k-rsU8A-za_xmtasJ4Mx-1" value="CLIENTE" style="rounded=0;whiteSpace=wrap;html=1;" vertex="1" parent="1">
          <mxGeometry x="-60" y="320" width="120" height="60" as="geometry" />
        </mxCell>
        <mxCell id="k-rsU8A-za_xmtasJ4Mx-13" style="edgeStyle=orthogonalEdgeStyle;rounded=0;orthogonalLoop=1;jettySize=auto;html=1;entryX=0.072;entryY=0.705;entryDx=0;entryDy=0;entryPerimeter=0;" edge="1" parent="1" source="k-rsU8A-za_xmtasJ4Mx-2" target="k-rsU8A-za_xmtasJ4Mx-11">
          <mxGeometry relative="1" as="geometry">
            <mxPoint x="420" y="280" as="targetPoint" />
            <Array as="points">
              <mxPoint x="385" y="280" />
              <mxPoint x="465" y="280" />
            </Array>
          </mxGeometry>
        </mxCell>
        <mxCell id="k-rsU8A-za_xmtasJ4Mx-2" value="COMPRA" style="shape=ext;margin=3;double=1;whiteSpace=wrap;html=1;align=center;" vertex="1" parent="1">
          <mxGeometry x="320" y="320" width="130" height="60" as="geometry" />
        </mxCell>
        <mxCell id="k-rsU8A-za_xmtasJ4Mx-54" style="edgeStyle=orthogonalEdgeStyle;rounded=0;orthogonalLoop=1;jettySize=auto;html=1;entryX=0;entryY=0.5;entryDx=0;entryDy=0;" edge="1" parent="1" source="k-rsU8A-za_xmtasJ4Mx-3" target="k-rsU8A-za_xmtasJ4Mx-49">
          <mxGeometry relative="1" as="geometry" />
        </mxCell>
        <mxCell id="k-rsU8A-za_xmtasJ4Mx-55" style="edgeStyle=orthogonalEdgeStyle;rounded=0;orthogonalLoop=1;jettySize=auto;html=1;entryX=1;entryY=1;entryDx=0;entryDy=0;" edge="1" parent="1" source="k-rsU8A-za_xmtasJ4Mx-3" target="k-rsU8A-za_xmtasJ4Mx-51">
          <mxGeometry relative="1" as="geometry" />
        </mxCell>
        <mxCell id="k-rsU8A-za_xmtasJ4Mx-56" style="edgeStyle=orthogonalEdgeStyle;rounded=0;orthogonalLoop=1;jettySize=auto;html=1;entryX=0.5;entryY=1;entryDx=0;entryDy=0;" edge="1" parent="1" source="k-rsU8A-za_xmtasJ4Mx-3" target="k-rsU8A-za_xmtasJ4Mx-53">
          <mxGeometry relative="1" as="geometry" />
        </mxCell>
        <mxCell id="k-rsU8A-za_xmtasJ4Mx-3" value="FUNCIONARIO" style="whiteSpace=wrap;html=1;align=center;" vertex="1" parent="1">
          <mxGeometry x="700" y="320" width="140" height="60" as="geometry" />
        </mxCell>
        <mxCell id="k-rsU8A-za_xmtasJ4Mx-63" style="edgeStyle=orthogonalEdgeStyle;rounded=0;orthogonalLoop=1;jettySize=auto;html=1;" edge="1" parent="1" source="k-rsU8A-za_xmtasJ4Mx-4" target="k-rsU8A-za_xmtasJ4Mx-61">
          <mxGeometry relative="1" as="geometry" />
        </mxCell>
        <mxCell id="k-rsU8A-za_xmtasJ4Mx-65" style="edgeStyle=orthogonalEdgeStyle;rounded=0;orthogonalLoop=1;jettySize=auto;html=1;entryX=1;entryY=0.5;entryDx=0;entryDy=0;" edge="1" parent="1" source="k-rsU8A-za_xmtasJ4Mx-4" target="k-rsU8A-za_xmtasJ4Mx-60">
          <mxGeometry relative="1" as="geometry" />
        </mxCell>
        <mxCell id="k-rsU8A-za_xmtasJ4Mx-4" value="FORNECEDOR" style="whiteSpace=wrap;html=1;align=center;" vertex="1" parent="1">
          <mxGeometry x="-60" y="600" width="130" height="60" as="geometry" />
        </mxCell>
        <mxCell id="k-rsU8A-za_xmtasJ4Mx-70" style="edgeStyle=orthogonalEdgeStyle;rounded=0;orthogonalLoop=1;jettySize=auto;html=1;" edge="1" parent="1" source="k-rsU8A-za_xmtasJ4Mx-5">
          <mxGeometry relative="1" as="geometry">
            <mxPoint x="280" y="760.0000000000002" as="targetPoint" />
            <Array as="points">
              <mxPoint x="350" y="690" />
              <mxPoint x="280" y="690" />
            </Array>
          </mxGeometry>
        </mxCell>
        <mxCell id="k-rsU8A-za_xmtasJ4Mx-71" style="edgeStyle=orthogonalEdgeStyle;rounded=0;orthogonalLoop=1;jettySize=auto;html=1;exitX=0.804;exitY=0.981;exitDx=0;exitDy=0;exitPerimeter=0;" edge="1" parent="1">
          <mxGeometry relative="1" as="geometry">
            <mxPoint x="440.50999999999993" y="659.9999999999999" as="sourcePoint" />
            <mxPoint x="541.1800000000001" y="771.14" as="targetPoint" />
            <Array as="points">
              <mxPoint x="440.96" y="671.14" />
              <mxPoint x="439.96" y="691.14" />
              <mxPoint x="540.96" y="691.14" />
            </Array>
          </mxGeometry>
        </mxCell>
        <mxCell id="k-rsU8A-za_xmtasJ4Mx-75" style="edgeStyle=orthogonalEdgeStyle;rounded=0;orthogonalLoop=1;jettySize=auto;html=1;" edge="1" parent="1" source="k-rsU8A-za_xmtasJ4Mx-5" target="k-rsU8A-za_xmtasJ4Mx-69">
          <mxGeometry relative="1" as="geometry" />
        </mxCell>
        <mxCell id="k-rsU8A-za_xmtasJ4Mx-5" value="PRODUTO" style="whiteSpace=wrap;html=1;align=center;" vertex="1" parent="1">
          <mxGeometry x="320" y="600" width="137.5" height="60" as="geometry" />
        </mxCell>
        <mxCell id="k-rsU8A-za_xmtasJ4Mx-6" value="DEPARTAMENTO" style="whiteSpace=wrap;html=1;align=center;" vertex="1" parent="1">
          <mxGeometry x="710" y="600" width="140" height="60" as="geometry" />
        </mxCell>
        <mxCell id="k-rsU8A-za_xmtasJ4Mx-9" value="" style="endArrow=none;html=1;rounded=0;" edge="1" parent="1" source="k-rsU8A-za_xmtasJ4Mx-1">
          <mxGeometry relative="1" as="geometry">
            <mxPoint y="160" as="sourcePoint" />
            <mxPoint y="280" as="targetPoint" />
          </mxGeometry>
        </mxCell>
        <mxCell id="k-rsU8A-za_xmtasJ4Mx-23" style="edgeStyle=orthogonalEdgeStyle;rounded=0;orthogonalLoop=1;jettySize=auto;html=1;entryX=0.5;entryY=1;entryDx=0;entryDy=0;" edge="1" parent="1" source="k-rsU8A-za_xmtasJ4Mx-10" target="k-rsU8A-za_xmtasJ4Mx-20">
          <mxGeometry relative="1" as="geometry">
            <Array as="points">
              <mxPoint y="200" />
              <mxPoint x="-45" y="200" />
              <mxPoint x="-45" y="140" />
            </Array>
          </mxGeometry>
        </mxCell>
        <mxCell id="k-rsU8A-za_xmtasJ4Mx-33" style="edgeStyle=orthogonalEdgeStyle;rounded=0;orthogonalLoop=1;jettySize=auto;html=1;" edge="1" parent="1" source="k-rsU8A-za_xmtasJ4Mx-10" target="k-rsU8A-za_xmtasJ4Mx-22">
          <mxGeometry relative="1" as="geometry" />
        </mxCell>
        <mxCell id="k-rsU8A-za_xmtasJ4Mx-37" style="edgeStyle=orthogonalEdgeStyle;rounded=0;orthogonalLoop=1;jettySize=auto;html=1;" edge="1" parent="1" source="k-rsU8A-za_xmtasJ4Mx-10" target="k-rsU8A-za_xmtasJ4Mx-19">
          <mxGeometry relative="1" as="geometry" />
        </mxCell>
        <mxCell id="k-rsU8A-za_xmtasJ4Mx-10" value="endereco" style="ellipse;whiteSpace=wrap;html=1;align=center;" vertex="1" parent="1">
          <mxGeometry x="-50" y="240" width="100" height="40" as="geometry" />
        </mxCell>
        <mxCell id="k-rsU8A-za_xmtasJ4Mx-11" value="quantidade_produto" style="ellipse;whiteSpace=wrap;html=1;align=center;dashed=1;" vertex="1" parent="1">
          <mxGeometry x="457.5" y="260" width="112.5" height="40" as="geometry" />
        </mxCell>
        <mxCell id="k-rsU8A-za_xmtasJ4Mx-14" value="" style="endArrow=none;html=1;rounded=0;entryX=0.305;entryY=-0.059;entryDx=0;entryDy=0;entryPerimeter=0;" edge="1" parent="1" target="k-rsU8A-za_xmtasJ4Mx-2">
          <mxGeometry relative="1" as="geometry">
            <mxPoint x="360" y="250" as="sourcePoint" />
            <mxPoint x="360" y="310" as="targetPoint" />
          </mxGeometry>
        </mxCell>
        <mxCell id="k-rsU8A-za_xmtasJ4Mx-15" value="" style="endArrow=none;html=1;rounded=0;" edge="1" parent="1">
          <mxGeometry relative="1" as="geometry">
            <mxPoint x="320" y="250" as="sourcePoint" />
            <mxPoint x="360" y="250" as="targetPoint" />
            <Array as="points">
              <mxPoint x="320" y="210" />
              <mxPoint x="320" y="250" />
            </Array>
          </mxGeometry>
        </mxCell>
        <mxCell id="k-rsU8A-za_xmtasJ4Mx-16" value="produto" style="ellipse;whiteSpace=wrap;html=1;align=center;" vertex="1" parent="1">
          <mxGeometry x="270" y="190" width="100" height="40" as="geometry" />
        </mxCell>
        <mxCell id="k-rsU8A-za_xmtasJ4Mx-19" value="cep" style="ellipse;whiteSpace=wrap;html=1;align=center;" vertex="1" parent="1">
          <mxGeometry x="-160" y="190" width="70" height="20" as="geometry" />
        </mxCell>
        <mxCell id="k-rsU8A-za_xmtasJ4Mx-20" value="&lt;span style=&quot;border-bottom: 1px dotted&quot;&gt;bairro&lt;/span&gt;" style="ellipse;whiteSpace=wrap;html=1;align=center;" vertex="1" parent="1">
          <mxGeometry x="-90" y="125" width="80" height="20" as="geometry" />
        </mxCell>
        <mxCell id="k-rsU8A-za_xmtasJ4Mx-30" style="edgeStyle=orthogonalEdgeStyle;rounded=0;orthogonalLoop=1;jettySize=auto;html=1;entryX=0.5;entryY=0;entryDx=0;entryDy=0;" edge="1" parent="1" source="k-rsU8A-za_xmtasJ4Mx-21" target="k-rsU8A-za_xmtasJ4Mx-10">
          <mxGeometry relative="1" as="geometry">
            <Array as="points">
              <mxPoint x="40" y="200" />
              <mxPoint y="200" />
            </Array>
          </mxGeometry>
        </mxCell>
        <mxCell id="k-rsU8A-za_xmtasJ4Mx-21" value="numero" style="ellipse;whiteSpace=wrap;html=1;align=center;" vertex="1" parent="1">
          <mxGeometry x="30" y="125" width="70" height="25" as="geometry" />
        </mxCell>
        <mxCell id="k-rsU8A-za_xmtasJ4Mx-22" value="rua" style="ellipse;whiteSpace=wrap;html=1;align=center;" vertex="1" parent="1">
          <mxGeometry x="60" y="190" width="70" height="20" as="geometry" />
        </mxCell>
        <mxCell id="k-rsU8A-za_xmtasJ4Mx-45" style="edgeStyle=orthogonalEdgeStyle;rounded=0;orthogonalLoop=1;jettySize=auto;html=1;entryX=0.001;entryY=0.874;entryDx=0;entryDy=0;entryPerimeter=0;shape=link;" edge="1" parent="1" source="k-rsU8A-za_xmtasJ4Mx-38" target="k-rsU8A-za_xmtasJ4Mx-1">
          <mxGeometry relative="1" as="geometry">
            <mxPoint x="-90" y="390" as="targetPoint" />
          </mxGeometry>
        </mxCell>
        <mxCell id="k-rsU8A-za_xmtasJ4Mx-38" value="&lt;span style=&quot;border-bottom: 1px dotted&quot;&gt;codigo&lt;/span&gt;" style="ellipse;whiteSpace=wrap;html=1;align=center;" vertex="1" parent="1">
          <mxGeometry x="-210" y="400" width="90" height="30" as="geometry" />
        </mxCell>
        <mxCell id="k-rsU8A-za_xmtasJ4Mx-39" value="&lt;span style=&quot;border-bottom: 1px dotted&quot;&gt;nome&lt;/span&gt;" style="ellipse;whiteSpace=wrap;html=1;align=center;" vertex="1" parent="1">
          <mxGeometry x="-45" y="430" width="90" height="30" as="geometry" />
        </mxCell>
        <mxCell id="k-rsU8A-za_xmtasJ4Mx-40" value="&lt;span style=&quot;border-bottom: 1px dotted&quot;&gt;cpf&lt;/span&gt;" style="ellipse;whiteSpace=wrap;html=1;align=center;" vertex="1" parent="1">
          <mxGeometry x="110" y="400" width="90" height="30" as="geometry" />
        </mxCell>
        <mxCell id="k-rsU8A-za_xmtasJ4Mx-41" style="edgeStyle=orthogonalEdgeStyle;rounded=0;orthogonalLoop=1;jettySize=auto;html=1;exitX=0.5;exitY=1;exitDx=0;exitDy=0;" edge="1" parent="1" source="k-rsU8A-za_xmtasJ4Mx-39" target="k-rsU8A-za_xmtasJ4Mx-39">
          <mxGeometry relative="1" as="geometry" />
        </mxCell>
        <mxCell id="k-rsU8A-za_xmtasJ4Mx-48" value="nome" style="ellipse;whiteSpace=wrap;html=1;align=center;" vertex="1" parent="1">
          <mxGeometry x="820" y="150" width="100" height="40" as="geometry" />
        </mxCell>
        <mxCell id="k-rsU8A-za_xmtasJ4Mx-49" value="cpf" style="ellipse;whiteSpace=wrap;html=1;align=center;" vertex="1" parent="1">
          <mxGeometry x="920" y="240" width="100" height="40" as="geometry" />
        </mxCell>
        <mxCell id="k-rsU8A-za_xmtasJ4Mx-51" value="telefone" style="ellipse;shape=doubleEllipse;margin=3;whiteSpace=wrap;html=1;align=center;" vertex="1" parent="1">
          <mxGeometry x="610" y="230" width="100" height="40" as="geometry" />
        </mxCell>
        <mxCell id="k-rsU8A-za_xmtasJ4Mx-53" value="codigo" style="ellipse;whiteSpace=wrap;html=1;align=center;" vertex="1" parent="1">
          <mxGeometry x="680" y="145" width="100" height="40" as="geometry" />
        </mxCell>
        <mxCell id="k-rsU8A-za_xmtasJ4Mx-57" style="edgeStyle=orthogonalEdgeStyle;rounded=0;orthogonalLoop=1;jettySize=auto;html=1;entryX=0.269;entryY=0.966;entryDx=0;entryDy=0;entryPerimeter=0;" edge="1" parent="1" source="k-rsU8A-za_xmtasJ4Mx-3" target="k-rsU8A-za_xmtasJ4Mx-48">
          <mxGeometry relative="1" as="geometry" />
        </mxCell>
        <mxCell id="k-rsU8A-za_xmtasJ4Mx-60" value="telefone" style="ellipse;shape=doubleEllipse;margin=3;whiteSpace=wrap;html=1;align=center;" vertex="1" parent="1">
          <mxGeometry x="-210" y="680" width="100" height="40" as="geometry" />
        </mxCell>
        <mxCell id="k-rsU8A-za_xmtasJ4Mx-61" value="&lt;span style=&quot;border-bottom: 1px dotted&quot;&gt;codigo&lt;/span&gt;" style="ellipse;whiteSpace=wrap;html=1;align=center;" vertex="1" parent="1">
          <mxGeometry x="-90" y="750" width="100" height="40" as="geometry" />
        </mxCell>
        <mxCell id="k-rsU8A-za_xmtasJ4Mx-66" style="edgeStyle=orthogonalEdgeStyle;rounded=0;orthogonalLoop=1;jettySize=auto;html=1;" edge="1" parent="1" source="k-rsU8A-za_xmtasJ4Mx-62" target="k-rsU8A-za_xmtasJ4Mx-4">
          <mxGeometry relative="1" as="geometry">
            <mxPoint x="40" y="680" as="targetPoint" />
            <Array as="points">
              <mxPoint x="40" y="710" />
            </Array>
          </mxGeometry>
        </mxCell>
        <mxCell id="k-rsU8A-za_xmtasJ4Mx-62" value="nome" style="ellipse;whiteSpace=wrap;html=1;align=center;" vertex="1" parent="1">
          <mxGeometry x="60" y="690" width="100" height="40" as="geometry" />
        </mxCell>
        <mxCell id="k-rsU8A-za_xmtasJ4Mx-67" value="&lt;span style=&quot;border-bottom: 1px dotted&quot;&gt;codigo&lt;/span&gt;" style="ellipse;whiteSpace=wrap;html=1;align=center;" vertex="1" parent="1">
          <mxGeometry x="220" y="750" width="110" height="40" as="geometry" />
        </mxCell>
        <mxCell id="k-rsU8A-za_xmtasJ4Mx-68" value="&lt;span style=&quot;border-bottom: 1px dotted&quot;&gt;valor&lt;/span&gt;" style="ellipse;whiteSpace=wrap;html=1;align=center;" vertex="1" parent="1">
          <mxGeometry x="470" y="760" width="100" height="40" as="geometry" />
        </mxCell>
        <mxCell id="k-rsU8A-za_xmtasJ4Mx-69" value="descricao" style="ellipse;whiteSpace=wrap;html=1;align=center;" vertex="1" parent="1">
          <mxGeometry x="338.75" y="710" width="100" height="40" as="geometry" />
        </mxCell>
        <mxCell id="k-rsU8A-za_xmtasJ4Mx-80" style="edgeStyle=orthogonalEdgeStyle;rounded=0;orthogonalLoop=1;jettySize=auto;html=1;" edge="1" parent="1" source="k-rsU8A-za_xmtasJ4Mx-76" target="k-rsU8A-za_xmtasJ4Mx-6">
          <mxGeometry relative="1" as="geometry">
            <Array as="points">
              <mxPoint x="690" y="690" />
              <mxPoint x="740" y="690" />
            </Array>
          </mxGeometry>
        </mxCell>
        <mxCell id="k-rsU8A-za_xmtasJ4Mx-76" value="codigo" style="ellipse;whiteSpace=wrap;html=1;align=center;" vertex="1" parent="1">
          <mxGeometry x="640" y="720" width="100" height="40" as="geometry" />
        </mxCell>
        <mxCell id="k-rsU8A-za_xmtasJ4Mx-77" value="descricao" style="ellipse;whiteSpace=wrap;html=1;align=center;" vertex="1" parent="1">
          <mxGeometry x="830" y="720" width="100" height="40" as="geometry" />
        </mxCell>
        <mxCell id="k-rsU8A-za_xmtasJ4Mx-81" style="edgeStyle=orthogonalEdgeStyle;rounded=0;orthogonalLoop=1;jettySize=auto;html=1;entryX=0.807;entryY=1.004;entryDx=0;entryDy=0;entryPerimeter=0;" edge="1" parent="1" source="k-rsU8A-za_xmtasJ4Mx-77" target="k-rsU8A-za_xmtasJ4Mx-6">
          <mxGeometry relative="1" as="geometry" />
        </mxCell>
        <mxCell id="k-rsU8A-za_xmtasJ4Mx-82" value="REGISTRA" style="shape=rhombus;perimeter=rhombusPerimeter;whiteSpace=wrap;html=1;align=center;" vertex="1" parent="1">
          <mxGeometry x="530" y="360" width="120" height="60" as="geometry" />
        </mxCell>
        <mxCell id="k-rsU8A-za_xmtasJ4Mx-83" value="PERTENCE" style="shape=rhombus;perimeter=rhombusPerimeter;whiteSpace=wrap;html=1;align=center;" vertex="1" parent="1">
          <mxGeometry x="850" y="440" width="120" height="60" as="geometry" />
        </mxCell>
        <mxCell id="k-rsU8A-za_xmtasJ4Mx-84" value="CONTEM&lt;div&gt;produto_compra&lt;/div&gt;" style="shape=associativeEntity;whiteSpace=wrap;html=1;align=center;" vertex="1" parent="1">
          <mxGeometry x="317.5" y="470" width="142.5" height="60" as="geometry" />
        </mxCell>
        <mxCell id="k-rsU8A-za_xmtasJ4Mx-85" value="FORNECE" style="shape=rhombus;perimeter=rhombusPerimeter;whiteSpace=wrap;html=1;align=center;" vertex="1" parent="1">
          <mxGeometry x="120" y="600" width="120" height="60" as="geometry" />
        </mxCell>
        <mxCell id="k-rsU8A-za_xmtasJ4Mx-86" value="REALIZA" style="shape=rhombus;perimeter=rhombusPerimeter;whiteSpace=wrap;html=1;align=center;" vertex="1" parent="1">
          <mxGeometry x="160" y="320" width="120" height="60" as="geometry" />
        </mxCell>
        <mxCell id="k-rsU8A-za_xmtasJ4Mx-90" value="&lt;h1 style=&quot;margin-top: 0px;&quot;&gt;A&lt;/h1&gt;" style="text;html=1;whiteSpace=wrap;overflow=hidden;rounded=0;" vertex="1" parent="1">
          <mxGeometry x="210" y="280" width="180" height="120" as="geometry" />
        </mxCell>
        <mxCell id="k-rsU8A-za_xmtasJ4Mx-91" value="&lt;h1 style=&quot;margin-top: 0px;&quot;&gt;B&lt;/h1&gt;" style="text;html=1;whiteSpace=wrap;overflow=hidden;rounded=0;" vertex="1" parent="1">
          <mxGeometry x="580" y="320" width="180" height="120" as="geometry" />
        </mxCell>
        <mxCell id="k-rsU8A-za_xmtasJ4Mx-93" value="&lt;h1 style=&quot;margin-top: 0px;&quot;&gt;C&lt;/h1&gt;" style="text;html=1;whiteSpace=wrap;overflow=hidden;rounded=0;" vertex="1" parent="1">
          <mxGeometry x="900" y="400" width="180" height="120" as="geometry" />
        </mxCell>
        <mxCell id="k-rsU8A-za_xmtasJ4Mx-94" value="&lt;h1 style=&quot;margin-top: 0px;&quot;&gt;E&lt;/h1&gt;" style="text;html=1;whiteSpace=wrap;overflow=hidden;rounded=0;" vertex="1" parent="1">
          <mxGeometry x="185" y="570" width="180" height="120" as="geometry" />
        </mxCell>
        <mxCell id="k-rsU8A-za_xmtasJ4Mx-95" value="&lt;h1 style=&quot;margin-top: 0px;&quot;&gt;D&lt;/h1&gt;" style="text;html=1;whiteSpace=wrap;overflow=hidden;rounded=0;" vertex="1" parent="1">
          <mxGeometry x="290" y="435" width="40" height="50" as="geometry" />
        </mxCell>
        <mxCell id="k-rsU8A-za_xmtasJ4Mx-96" value="codigo_compra" style="ellipse;whiteSpace=wrap;html=1;align=center;" vertex="1" parent="1">
          <mxGeometry x="507.5" y="440" width="120" height="30" as="geometry" />
        </mxCell>
        <mxCell id="k-rsU8A-za_xmtasJ4Mx-97" value="&lt;span style=&quot;border-bottom: 1px dotted&quot;&gt;codigo_produto&lt;/span&gt;" style="ellipse;whiteSpace=wrap;html=1;align=center;" vertex="1" parent="1">
          <mxGeometry x="522.5" y="490" width="105" height="20" as="geometry" />
        </mxCell>
        <mxCell id="k-rsU8A-za_xmtasJ4Mx-98" value="&lt;span style=&quot;border-bottom: 1px dotted&quot;&gt;codigo_produto_compra&lt;/span&gt;" style="ellipse;whiteSpace=wrap;html=1;align=center;" vertex="1" parent="1">
          <mxGeometry x="505" y="540" width="140" height="30" as="geometry" />
        </mxCell>
        <mxCell id="k-rsU8A-za_xmtasJ4Mx-103" value="" style="endArrow=none;html=1;rounded=0;exitX=1;exitY=1;exitDx=0;exitDy=0;entryX=0;entryY=0.5;entryDx=0;entryDy=0;" edge="1" parent="1" source="k-rsU8A-za_xmtasJ4Mx-84" target="k-rsU8A-za_xmtasJ4Mx-98">
          <mxGeometry relative="1" as="geometry">
            <mxPoint x="400" y="570" as="sourcePoint" />
            <mxPoint x="500" y="550" as="targetPoint" />
          </mxGeometry>
        </mxCell>
        <mxCell id="k-rsU8A-za_xmtasJ4Mx-104" value="" style="endArrow=none;html=1;rounded=0;exitX=1;exitY=0.5;exitDx=0;exitDy=0;entryX=0;entryY=0.5;entryDx=0;entryDy=0;" edge="1" parent="1" source="k-rsU8A-za_xmtasJ4Mx-84" target="k-rsU8A-za_xmtasJ4Mx-97">
          <mxGeometry relative="1" as="geometry">
            <mxPoint x="400" y="570" as="sourcePoint" />
            <mxPoint x="560" y="570" as="targetPoint" />
          </mxGeometry>
        </mxCell>
        <mxCell id="k-rsU8A-za_xmtasJ4Mx-105" value="" style="endArrow=none;html=1;rounded=0;exitX=1;exitY=0;exitDx=0;exitDy=0;entryX=0.069;entryY=0.676;entryDx=0;entryDy=0;entryPerimeter=0;" edge="1" parent="1" source="k-rsU8A-za_xmtasJ4Mx-84" target="k-rsU8A-za_xmtasJ4Mx-96">
          <mxGeometry relative="1" as="geometry">
            <mxPoint x="400" y="570" as="sourcePoint" />
            <mxPoint x="560" y="570" as="targetPoint" />
          </mxGeometry>
        </mxCell>
      </root>
    </mxGraphModel>
  </diagram>
</mxfile>
